<?xml version="1.0" standalone="no"?>
<!DOCTYPE svg PUBLIC "-//W3C//DTD SVG 20010904//EN"
 "http://www.w3.org/TR/2001/REC-SVG-20010904/DTD/svg10.dtd">
<svg version="1.0" xmlns="http://www.w3.org/2000/svg"
 width="249.000000pt" height="249.000000pt" viewBox="0 0 249.000000 249.000000"
 preserveAspectRatio="xMidYMid meet">
<metadata>
Created by potrace 1.16, written by Peter Selinger 2001-2019
</metadata>
<g transform="translate(0.000000,249.000000) scale(0.100000,-0.100000)"
fill="#000000" stroke="none">
<path d="M30 1775 l0 -165 170 0 170 0 0 -165 0 -165 173 -2 172 -3 2 -162 2
-163 -172 -2 -172 -3 -3 -163 -2 -162 172 2 173 3 3 163 2 162 170 0 170 0 0
-165 0 -165 170 0 170 0 0 165 0 165 170 0 170 0 2 -162 3 -163 173 -3 172 -2
0 165 0 165 -175 0 -174 0 2 163 2 162 173 3 172 2 0 165 0 165 170 0 170 0 0
165 0 165 -342 -2 -343 -3 -3 -162 -2 -163 -168 -2 -167 -3 -3 -327 -2 -328
-170 0 -170 0 -2 328 -3 327 -167 3 -168 2 -2 163 -3 162 -342 3 -343 2 0
-165z"/>
</g>
</svg>
